<svg xmlns="http://www.w3.org/2000/svg" xmlns:xlink="http://www.w3.org/1999/xlink" width="845.014" height="789.515" viewBox="0 0 845.014 789.515">
  <defs>
    <clipPath id="clip-path">
      <rect id="Rectangle_19639" data-name="Rectangle 19639" width="510.756" height="393.233" fill="none"/>
    </clipPath>
  </defs>
  <g id="Group_58013" data-name="Group 58013" transform="translate(-1083.498 -147.47)">
    <path id="Union_954" data-name="Union 954" d="M330.215,787.137c-95.89-19.529-245.144-117.393-236-222.07,14.939-171,330.05-117.255,320.09-178.8-8.918-55.108-257.352-226.985-309.234-262.343-4.836,17.859-11.824,35.923-20.641,38.148C66.424,166.614-1.949,20,.046,4.424s134.5,12.994,170.6,39.1C184.992,53.9,146.96,72.475,125.831,81.579,181.9,103.447,595.188,266.694,729.7,379.5,903.259,525.061,436.814,512.77,428.846,560.242c-6.248,37.218,289.826,171.105,414.673,210.1.641,3.586,2.238,17.638-8.92,17.862-42.232.212-97.078.3-155.058.3C528.694,788.509,356.623,787.886,330.215,787.137ZM112.818,86.9s-.217,1.473-.641,4.007l3.081-4.957C113.7,86.568,112.818,86.9,112.818,86.9Z" transform="translate(1083.998 147.976)" fill="#ff6d24" stroke="rgba(0,0,0,0)" stroke-miterlimit="10" stroke-width="1" opacity="0.06"/>
    <g id="Group_56900" data-name="Group 56900" transform="translate(24.652 -31)">
      <g id="Group_56896" data-name="Group 56896" transform="translate(1106 359)">
        <g id="Group_56895" data-name="Group 56895" transform="translate(0 0)">
          <g id="Group_56833" data-name="Group 56833" transform="translate(0 25.338)">
            <g id="Group_56821" data-name="Group 56821" transform="translate(50.065 0)">
              <g id="Group_56805" data-name="Group 56805">
                <g id="Group_56804" data-name="Group 56804">
                  <rect id="Rectangle_19625" data-name="Rectangle 19625" width="555.347" height="368.793" rx="6.521" fill="#fff0e8" stroke="#fcc8af" stroke-miterlimit="10" stroke-width="3"/>
                  <g id="Group_56803" data-name="Group 56803" transform="translate(26.439 15.432)">
                    <path id="Path_105882" data-name="Path 105882" d="M159.911,143.156a5.08,5.08,0,1,1-5.08-5.079A5.08,5.08,0,0,1,159.911,143.156Z" transform="translate(-149.751 -138.077)" fill="#ff6d24"/>
                    <path id="Path_105883" data-name="Path 105883" d="M177.663,143.156a5.079,5.079,0,1,1-5.079-5.079A5.08,5.08,0,0,1,177.663,143.156Z" transform="translate(-147.761 -138.077)" fill="#ff6d24"/>
                    <path id="Path_105884" data-name="Path 105884" d="M195.416,143.156a5.08,5.08,0,1,1-5.08-5.079A5.08,5.08,0,0,1,195.416,143.156Z" transform="translate(-145.771 -138.077)" fill="#ff6d24"/>
                  </g>
                  <line id="Line_1096" data-name="Line 1096" x2="555.347" transform="translate(0 38.343)" fill="none" stroke="#fcc8af" stroke-miterlimit="10" stroke-width="3"/>
                </g>
              </g>
              <g id="Group_56814" data-name="Group 56814" transform="translate(514.878 48.308)">
                <g id="Group_56813" data-name="Group 56813" transform="translate(0)">
                  <g id="Group_56811" data-name="Group 56811">
                    <g id="Group_56810" data-name="Group 56810">
                      <g id="Group_56809" data-name="Group 56809">
                        <rect id="Rectangle_19628" data-name="Rectangle 19628" width="81.229" height="77.115" rx="6.022" transform="translate(81.229 77.115) rotate(180)" fill="#ff7935"/>
                      </g>
                    </g>
                  </g>
                </g>
              </g>
            </g>
            <g id="Group_56832" data-name="Group 56832" transform="translate(0 334.313)">
              <rect id="Rectangle_19633" data-name="Rectangle 19633" width="13.052" height="12.642" rx="2.861" transform="translate(0)" fill="#ffb1a5"/>
            </g>
          </g>
          <g id="Group_56894" data-name="Group 56894" transform="translate(101.22 0)">
            <g id="Group_56893" data-name="Group 56893" clip-path="url(#clip-path)">
              <g id="Group_56892" data-name="Group 56892" transform="translate(3.339 3.52)">
                <g id="Group_56854" data-name="Group 56854" transform="translate(286.105 14.134)">
                  <g id="Group_56834" data-name="Group 56834" transform="translate(6.229 221.929)">
                    <path id="Path_105892" data-name="Path 105892" d="M523.607,323.127l-40.593-5.4.317,4.03-34.707,4.622s-22.371,56.126-2.655,179.565H474.2l10.161-125.165h3.609l9.841,125.165h28.233C545.762,382.5,523.607,323.127,523.607,323.127Z" transform="translate(-437.845 -317.722)" fill="#081944"/>
                  </g>
                  <g id="Group_56843" data-name="Group 56843" transform="translate(0 112.942)">
                    <g id="Group_56840" data-name="Group 56840" transform="translate(90.098 33.856)">
                      <g id="Group_56836" data-name="Group 56836" transform="translate(0 15.851)">
                        <g id="Group_56835" data-name="Group 56835">
                          <path id="Path_105893" data-name="Path 105893" d="M538.859,269.893c-3.473-5.544-22.981-5.347-24.011-5.468-5.274-.618,3.382,41.348,14.353,78.031a12.317,12.317,0,0,0,16.6,7.831l.219-.092a12.334,12.334,0,0,0,7.313-13.647C548.115,308.867,542.876,276.3,538.859,269.893Z" transform="translate(-513.261 -264.418)" fill="#ffc4bb"/>
                        </g>
                        <path id="Path_105894" data-name="Path 105894" d="M543.206,283.852,518.3,293.517,515.964,281.7l25.791-6.434Z" transform="translate(-512.958 -263.202)" fill="#ffa99b"/>
                        <path id="Path_105895" data-name="Path 105895" d="M545.825,305.3s-11.8,15.846-11.237,15.118,9.254-25.608,9.254-25.608Z" transform="translate(-510.872 -261.011)" fill="#ffa99b"/>
                      </g>
                      <g id="Group_56839" data-name="Group 56839" transform="translate(15.41)">
                        <path id="Path_105896" data-name="Path 105896" d="M563.53,285.092l-33.821,43.821a12.437,12.437,0,0,0,3.074,18.029h0a12.436,12.436,0,0,0,17.7-4.505L578.639,290.5Z" transform="translate(-527.117 -246.249)" fill="#ffc4bb"/>
                        <g id="Group_56837" data-name="Group 56837" transform="translate(35.501 20.354)">
                          <path id="Path_105897" data-name="Path 105897" d="M568.705,297.956a13.951,13.951,0,1,1,17.565-8.987A13.951,13.951,0,0,1,568.705,297.956Z" transform="translate(-559.039 -268.214)" fill="#ffc4bb"/>
                          <path id="Path_105898" data-name="Path 105898" d="M583.1,276.547s3.818-3.965-2.955-6.743S565,267.664,559.65,280.644Z" transform="translate(-558.971 -268.467)" fill="#ffb1a5"/>
                        </g>
                        <g id="Group_56838" data-name="Group 56838" transform="translate(44.248)">
                          <path id="Path_105899" data-name="Path 105899" d="M589.165,250.844l14.161,6.14a1.461,1.461,0,0,1,.641,2.086l-18.63,34.8a1.781,1.781,0,0,1-2.212.85l-14.161-6.14a1.46,1.46,0,0,1-.641-2.086l18.63-34.8A1.781,1.781,0,0,1,589.165,250.844Z" transform="translate(-566.768 -250.102)" fill="#372f5f"/>
                          <path id="Path_105900" data-name="Path 105900" d="M587.949,250.29l14.162,6.14a1.461,1.461,0,0,1,.641,2.086l-18.63,34.8a1.781,1.781,0,0,1-2.212.85l-14.161-6.14a1.459,1.459,0,0,1-.641-2.086l18.63-34.8A1.781,1.781,0,0,1,587.949,250.29Z" transform="translate(-566.905 -250.164)" fill="#261b43"/>
                          <path id="Path_105901" data-name="Path 105901" d="M585.922,253.461l12.443,5.395-15.183,28.36-12.443-5.395Z" transform="translate(-566.475 -249.795)" fill="#e6e6e6"/>
                          <path id="Path_105902" data-name="Path 105902" d="M598.365,258.856l-27.626,22.965,15.183-28.36Z" transform="translate(-566.475 -249.795)" fill="#fff"/>
                        </g>
                        <path id="Path_105903" data-name="Path 105903" d="M575.567,268.631a22.593,22.593,0,0,1,6,2.226,3.2,3.2,0,0,1,1.548,3.556h0a3.181,3.181,0,0,1-2.689,2.388l-7.362.929s-3.841,6.62-8.86,7.364l4.6-11.625Z" transform="translate(-522.96 -248.094)" fill="#ffc4bb"/>
                      </g>
                    </g>
                    <g id="Group_56842" data-name="Group 56842">
                      <g id="Group_56841" data-name="Group 56841">
                        <path id="Path_105904" data-name="Path 105904" d="M496.338,219.721c-.813,0,52.208,7.336,60.957,67.787l-27.513,4.216-5.547,45.636H447.482l-15.238-84.319s17.005-24.37,48.579-33.32Z" transform="translate(-432.244 -219.721)" fill="#f44"/>
                        <line id="Line_1100" data-name="Line 1100" y1="26.394" x2="2.388" transform="translate(97.538 45.608)" fill="none" stroke="#fff" stroke-linecap="round" stroke-linejoin="round" stroke-width="1.233"/>
                      </g>
                    </g>
                  </g>
                  <g id="Group_56853" data-name="Group 56853" transform="translate(23.898 0)">
                    <path id="Path_105905" data-name="Path 105905" d="M497.555,222.615v-21H472.948v21.244a47.791,47.791,0,0,0-6.61,2.681l19.191,11.431,19.62-11.432A32.01,32.01,0,0,0,497.555,222.615Z" transform="translate(-452.32 -108.808)" fill="#ffc4bb"/>
                    <path id="Path_105906" data-name="Path 105906" d="M472.077,204.576S476.5,216.31,488.293,215.3c10.843-.931,9.117-17.193,9.117-17.193Z" transform="translate(-451.677 -109.202)" fill="#ffa99b"/>
                    <g id="Group_56846" data-name="Group 56846" transform="translate(0 65.031)">
                      <path id="Path_105907" data-name="Path 105907" d="M463.4,191.377c-3.857,3.5-12.481-9.771-8.754-13.5s6.569,2.12,6.569,2.12l1.665,3.96,1.254,5.365.3,1.406Z" transform="translate(-453.733 -176.639)" fill="#feb3a7"/>
                      <g id="Group_56845" data-name="Group 56845" transform="translate(2.715 5.749)">
                        <g id="Group_56844" data-name="Group 56844">
                          <path id="Path_105908" data-name="Path 105908" d="M456.175,182s2.919-1.313,5.513,2.919" transform="translate(-456.175 -181.809)" fill="none" stroke="#ff7f6b" stroke-linecap="round" stroke-linejoin="round" stroke-width="0.993" opacity="0.53"/>
                        </g>
                      </g>
                    </g>
                    <g id="Group_56849" data-name="Group 56849" transform="translate(54.306 65.2)">
                      <path id="Path_105909" data-name="Path 105909" d="M503.539,190.957c3.546,3.812,13.262-8.68,9.864-12.707s-6.726,1.556-6.726,1.556l-1.992,3.806-1.7,5.239-.416,1.375Z" transform="translate(-502.565 -176.791)" fill="#feb3a7"/>
                      <g id="Group_56848" data-name="Group 56848" transform="translate(2.906 5.692)">
                        <g id="Group_56847" data-name="Group 56847">
                          <path id="Path_105910" data-name="Path 105910" d="M510.919,182.207s-2.8-1.556-5.741,2.442" transform="translate(-505.178 -181.909)" fill="none" stroke="#ff7f6b" stroke-linecap="round" stroke-linejoin="round" stroke-width="0.993" opacity="0.53"/>
                        </g>
                      </g>
                    </g>
                    <g id="Group_56850" data-name="Group 56850" transform="translate(2.903 24.1)">
                      <path id="Path_105911" data-name="Path 105911" d="M456.344,169.349c0,17.564,13.392,25.893,29.912,25.893s29.911-8.328,29.911-25.893-13.392-29.515-29.911-29.515S456.344,151.783,456.344,169.349Z" transform="translate(-456.344 -139.834)" fill="#061641"/>
                    </g>
                    <path id="Path_105912" data-name="Path 105912" d="M460,170.163a120.083,120.083,0,0,0,3.045,26.693c1.489,6.466,5.678,10.984,11.6,14.621l1.079.663a20.357,20.357,0,0,0,20.721.229h0c6.415-3.74,10.907-8.671,12.289-15.609a175.543,175.543,0,0,0,2.789-26.6s2.392-27.22-25.393-26.691S460,170.163,460,170.163Z" transform="translate(-453.033 -115.327)" fill="#ffc4bb"/>
                    <g id="Group_56852" data-name="Group 56852" transform="translate(12.818 53.878)">
                      <path id="Path_105913" data-name="Path 105913" d="M482.962,178.292l-1.314,6.818a1.714,1.714,0,0,0,.121.633,1.679,1.679,0,0,0,2,.925l1.728-.458" transform="translate(-463.422 -164.851)" fill="none" stroke="#ff7f6b" stroke-linecap="round" stroke-linejoin="round" stroke-width="1.232"/>
                      <path id="Path_105914" data-name="Path 105914" d="M479.067,168.5l-13.808,3.237s.627-3.514,6.277-4.792S479.067,168.5,479.067,168.5Z" transform="translate(-465.259 -166.611)" fill="#061641"/>
                      <path id="Path_105915" data-name="Path 105915" d="M488.7,168.5l13.334,3.237s-.606-3.514-6.061-4.792S488.7,168.5,488.7,168.5Z" transform="translate(-462.632 -166.611)" fill="#061641"/>
                      <ellipse id="Ellipse_5628" data-name="Ellipse 5628" cx="2.329" cy="2.323" rx="2.329" ry="2.323" transform="translate(6.233 9.707)" fill="#061641"/>
                      <path id="Path_105916" data-name="Path 105916" d="M495.373,177.662a2.329,2.329,0,1,1-2.329-2.323A2.325,2.325,0,0,1,495.373,177.662Z" transform="translate(-462.405 -165.632)" fill="#061641"/>
                      <path id="Path_105917" data-name="Path 105917" d="M475.052,190.172H493.01S485.051,208.79,475.052,190.172Z" transform="translate(-464.16 -161.062)" fill="#fff"/>
                    </g>
                    <path id="Path_105919" data-name="Path 105919" d="M506.907,178.634S495.8,163.617,498.361,148.4a21.888,21.888,0,0,1,10.393,14.859C510.9,173.971,506.907,178.634,506.907,178.634Z" transform="translate(-448.774 -114.773)" fill="#061641"/>
                    <path id="Path_105920" data-name="Path 105920" d="M460.139,179.755s12.9-17.057,10.343-32.272c0,0-8.95,5.171-11.1,15.881S460.139,179.755,460.139,179.755Z" transform="translate(-453.189 -114.876)" fill="#061641"/>
                    <path id="Path_105921" data-name="Path 105921" d="M510.541,155.059S496.276,170.675,457.249,168c0,0,5.976-22.915,24.89-25.356C482.139,142.645,503.977,140.038,510.541,155.059Z" transform="translate(-453.339 -115.438)" fill="#061641"/>
                    <circle id="Ellipse_5631" data-name="Ellipse 5631" cx="18.634" cy="18.634" r="18.634" transform="translate(34.835 36.792) rotate(-80.831)" fill="#061641"/>
                  </g>
                </g>
                <g id="Group_56868" data-name="Group 56868" transform="translate(26.174 34.945)">
                  <path id="Path_105922" data-name="Path 105922" d="M308.353,323.416l-34.707-4.622.317-4.031-40.593,5.406s-22.155,59.374-2.439,182.812h28.233L269,377.816h3.609l10.161,125.165h28.233C330.724,379.543,308.353,323.416,308.353,323.416Z" transform="translate(-195.796 -116.936)" fill="#081944"/>
                  <g id="Group_56863" data-name="Group 56863" transform="translate(20.182)">
                    <path id="Path_105923" data-name="Path 105923" d="M306.267,174.28c-4.7-5.527-8.459-11.974-11.655-21.02-3.431-9.712-14.667-5.764-14.667-5.764s-9.363-12.045-23.452-7.85-18.985,14.221-19.271,26.141-9.663,13.784-16.883,27.573c-12.745,24.344,8.713,44.849,47.775,39.16l.053-.379a40.986,40.986,0,0,0,14.315,1.337C329.408,230.693,324.879,196.177,306.267,174.28Z" transform="translate(-216.662 -136.665)" fill="#061641"/>
                    <g id="Group_56857" data-name="Group 56857" transform="translate(73.21 40.93)">
                      <path id="Path_105924" data-name="Path 105924" d="M283.525,188.419c3.857,3.5,12.481-9.771,8.754-13.5s-6.57,2.12-6.57,2.12L284.046,181l-1.254,5.365-.3,1.4Z" transform="translate(-282.492 -173.68)" fill="#feb3a7"/>
                      <g id="Group_56856" data-name="Group 56856" transform="translate(2.473 5.75)">
                        <g id="Group_56855" data-name="Group 56855">
                          <path id="Path_105925" data-name="Path 105925" d="M290.229,179.043s-2.919-1.313-5.513,2.918" transform="translate(-284.716 -178.851)" fill="none" stroke="#fe9786" stroke-linecap="round" stroke-linejoin="round" stroke-width="0.993"/>
                        </g>
                      </g>
                    </g>
                    <g id="Group_56860" data-name="Group 56860" transform="translate(18.058 41.098)">
                      <path id="Path_105926" data-name="Path 105926" d="M243.473,188c-3.546,3.811-13.262-8.68-9.864-12.708s6.726,1.557,6.726,1.557l1.992,3.806,1.7,5.239.416,1.375Z" transform="translate(-232.899 -173.832)" fill="#feb3a7"/>
                      <g id="Group_56859" data-name="Group 56859" transform="translate(2.902 5.693)">
                        <g id="Group_56858" data-name="Group 56858">
                          <path id="Path_105927" data-name="Path 105927" d="M235.508,179.249s2.8-1.556,5.741,2.442" transform="translate(-235.508 -178.951)" fill="none" stroke="#fe9786" stroke-linecap="round" stroke-linejoin="round" stroke-width="0.993"/>
                        </g>
                      </g>
                    </g>
                    <g id="Group_56861" data-name="Group 56861" transform="translate(21.185)">
                      <path id="Path_105928" data-name="Path 105928" d="M295.533,166.39c0,17.564-13.391,25.894-29.911,25.894s-29.911-8.33-29.911-25.894,13.392-29.514,29.911-29.514S295.533,148.825,295.533,166.39Z" transform="translate(-235.711 -136.876)" fill="#061641"/>
                    </g>
                    <rect id="Rectangle_19636" data-name="Rectangle 19636" width="24.606" height="31.863" transform="translate(38.677 68.708)" fill="#ffc4bb"/>
                    <path id="Path_105929" data-name="Path 105929" d="M248.211,196.872s6.33,13.887,14.117,16.055a10.025,10.025,0,0,0,6.309-.4c2.931-1.142,6.649-5.945,7.28-11.26l.294-3.037S262.353,206.523,248.211,196.872Z" transform="translate(-212.501 -130.263)" fill="#ffa99b"/>
                    <path id="Path_105930" data-name="Path 105930" d="M291.046,167.205A120.065,120.065,0,0,1,288,193.9c-1.489,6.466-5.678,10.984-11.6,14.622l-1.079.662a20.357,20.357,0,0,1-20.721.23h0c-6.416-3.74-10.907-8.671-12.29-15.609a175.62,175.62,0,0,1-2.788-26.6s-2.392-27.221,25.392-26.691S291.046,167.205,291.046,167.205Z" transform="translate(-214.104 -136.469)" fill="#ffc4bb"/>
                    <g id="Group_56862" data-name="Group 56862" transform="translate(32.296 30.951)">
                      <path id="Path_105931" data-name="Path 105931" d="M262.382,174.624l-1.444,7.261a1.707,1.707,0,0,0,.121.632,1.681,1.681,0,0,0,2,.922l1.728-.457" transform="translate(-243.994 -162.854)" fill="none" stroke="#ff7f6b" stroke-linecap="round" stroke-linejoin="round" stroke-width="1.23"/>
                      <path id="Path_105932" data-name="Path 105932" d="M266.144,166.745l14.782,3.5s-.672-3.8-6.719-5.179S266.144,166.745,266.144,166.745Z" transform="translate(-243.411 -164.707)" fill="#061641"/>
                      <path id="Path_105933" data-name="Path 105933" d="M260.674,166.745l-14.972,3.5s.681-3.8,6.8-5.179S260.674,166.745,260.674,166.745Z" transform="translate(-245.702 -164.707)" fill="#061641"/>
                      <path id="Path_105934" data-name="Path 105934" d="M254.811,175.023a2.329,2.329,0,1,1-2.329-2.315A2.322,2.322,0,0,1,254.811,175.023Z" transform="translate(-245.203 -163.81)" fill="#061641"/>
                      <path id="Path_105935" data-name="Path 105935" d="M274.664,175.023a2.329,2.329,0,1,1-2.329-2.315A2.322,2.322,0,0,1,274.664,175.023Z" transform="translate(-242.978 -163.81)" fill="#061641"/>
                      <path id="Path_105936" data-name="Path 105936" d="M252.959,186.7H273.4s-1.442,7.848-10.711,7.848C255.629,194.547,252.959,186.7,252.959,186.7Z" transform="translate(-245.472 -159.335)" fill="#fff"/>
                    </g>
                    <path id="Path_105937" data-name="Path 105937" d="M240.091,175.676s11.109-15.019,8.546-30.233a21.892,21.892,0,0,0-10.393,14.86C236.1,171.012,240.091,175.676,240.091,175.676Z" transform="translate(-214.313 -135.916)" fill="#061641"/>
                    <path id="Path_105938" data-name="Path 105938" d="M286.941,175.279s-12.9-15.539-10.342-30.754c0,0,8.95,5.171,11.1,15.881S286.941,175.279,286.941,175.279Z" transform="translate(-209.981 -136.019)" fill="#061641"/>
                    <path id="Path_105939" data-name="Path 105939" d="M240.679,152.1s12.747,17.133,51.774,14.459c0,0-4.458-24.433-23.372-26.873C269.081,139.687,247.243,137.08,240.679,152.1Z" transform="translate(-213.969 -136.58)" fill="#061641"/>
                  </g>
                  <g id="Group_56867" data-name="Group 56867" transform="translate(0 90.191)">
                    <g id="Group_56865" data-name="Group 56865" transform="translate(0 50.017)">
                      <g id="Group_56864" data-name="Group 56864">
                        <path id="Path_105940" data-name="Path 105940" d="M209.765,404.589c-.567.893,32.482-143.8,22.67-141.612-.9.2-18.08,1.8-20.634,6.988-7.4,15.054-12.715,133.527-12.715,133.527Z" transform="translate(-198.449 -262.952)" fill="#ffc4bb"/>
                        <path id="Path_105941" data-name="Path 105941" d="M199.151,389.629s-5.327,24.715,14.811,27.418a2.83,2.83,0,0,0,3.046-1.871l.058-.168a2.827,2.827,0,0,0-1.567-3.5c-3.283-1.468-8.375-5.178-5.848-13.6,0,0,2.91-.357,4.517,5.073a2.334,2.334,0,0,0,3.282,1.442h0a2.334,2.334,0,0,0,1.263-2.388c-.483-3.8-2.4-12.958-9.736-15.415Z" transform="translate(-198.514 -249.089)" fill="#ffc4bb"/>
                      </g>
                      <path id="Path_105942" data-name="Path 105942" d="M205.181,302.673s19.042,26.818,19.143,26.3,6.659-37.65,6.659-37.65l-23.107-10.01Z" transform="translate(-197.766 -260.894)" fill="#ffa99b"/>
                    </g>
                    <g id="Group_56866" data-name="Group 56866" transform="translate(4.513)">
                      <path id="Path_105943" data-name="Path 105943" d="M258.383,222.632c.813,0-47.062.853-55.811,61.3l27.513,4.215,5.547,45.637h76.753l15.238-84.319S316.79,231.2,285.215,222.249Z" transform="translate(-202.572 -217.497)" fill="#069e70"/>
                      <path id="Path_105944" data-name="Path 105944" d="M231.716,230.418s6.766,8.981,34.487,8.981c27.463,0,34.486-9.452,34.486-9.452s-16.19-9.046-34.977-11.972A124.455,124.455,0,0,0,231.716,230.418Z" transform="translate(-199.305 -217.976)" fill="#ffc4bb"/>
                    </g>
                  </g>
                </g>
                <g id="Group_56891" data-name="Group 56891" transform="translate(0 0)">
                  <g id="Group_56870" data-name="Group 56870" transform="translate(157.291 329.084)">
                    <g id="Group_56869" data-name="Group 56869">
                      <path id="Path_105945" data-name="Path 105945" d="M316.414,401.367l.066,120.557h59.64L380.7,401.367Z" transform="translate(-316.414 -401.367)" fill="#061d58"/>
                      <path id="Path_105946" data-name="Path 105946" d="M439.336,401.367l-.066,120.557H379.63l-4.583-120.557Z" transform="translate(-309.842 -401.367)" fill="#061d58"/>
                      <rect id="Rectangle_19637" data-name="Rectangle 19637" width="61.665" height="41.883" transform="translate(35.256)" fill="#061d58"/>
                    </g>
                  </g>
                  <g id="Group_56881" data-name="Group 56881" transform="translate(0 113.324)">
                    <g id="Group_56872" data-name="Group 56872" transform="translate(253.465 16.496)">
                      <g id="Group_56871" data-name="Group 56871" transform="translate(30.973 94.056)">
                        <path id="Path_105947" data-name="Path 105947" d="M470.769,306.763c3.7,47.647-.2,82.364.876,170.038l-35.6,1.738-5.3-164.111Z" transform="translate(-430.745 -306.763)" fill="#ffc9c0"/>
                        <path id="Path_105948" data-name="Path 105948" d="M434.694,337.515s22.044-2.018,37.114-11.96l-.4-8.749-36.73,5Z" transform="translate(-430.304 -305.637)" fill="#ffa99b"/>
                      </g>
                      <path id="Path_105949" data-name="Path 105949" d="M402.894,222.188S472.91,239.8,485.6,328.669c0,0-34.268,14.856-68.61,8.466l7.726-29.725Z" transform="translate(-402.894 -222.188)" fill="#4679ff"/>
                    </g>
                    <g id="Group_56879" data-name="Group 56879">
                      <g id="Group_56876" data-name="Group 56876">
                        <path id="Path_105950" data-name="Path 105950" d="M216.975,255.417l52.133,61.567L253.155,361.91s-39.624-55.09-57.429-97.67Z" transform="translate(-172.652 -201.967)" fill="#ffc9c0"/>
                        <g id="Group_56875" data-name="Group 56875">
                          <g id="Group_56874" data-name="Group 56874">
                            <g id="Group_56873" data-name="Group 56873">
                              <path id="Path_105951" data-name="Path 105951" d="M220.187,261.073s-18.306,10.342-22.963,6.6c-8.137-6.538-14.861-30.47-14.861-30.47S216.6,224.3,216.274,224.8,220.187,261.073,220.187,261.073Z" transform="translate(-174.15 -205.4)" fill="#ffc9c0"/>
                              <path id="Path_105952" data-name="Path 105952" d="M217,260.783c-.324-1.844,6.788-21.725,9.227-29.18a3.289,3.289,0,0,0-2.6-4.144h0a3.8,3.8,0,0,0-4.235,1.736L210.8,243.87Z" transform="translate(-170.962 -205.111)" fill="#ffc9c0"/>
                              <path id="Path_105953" data-name="Path 105953" d="M217.1,241.347l-5.9-29.33a3.692,3.692,0,0,0-4.267-2.927h0a3.179,3.179,0,0,0-2.61,3.526l2.569,21.839Z" transform="translate(-171.69 -207.167)" fill="#ffc9c0"/>
                              <path id="Path_105954" data-name="Path 105954" d="M206.754,230.716l-8.006-20.944a3.674,3.674,0,0,0-4.549-2.24h0a3.166,3.166,0,0,0-2.093,3.757l5.941,24.2Z" transform="translate(-173.067 -207.354)" fill="#ffc9c0"/>
                              <path id="Path_105955" data-name="Path 105955" d="M199.283,236.218l-10.129-20.579a4.026,4.026,0,0,0-5.141-1.972h0A3.508,3.508,0,0,0,182.2,218.3l8.075,19.428Z" transform="translate(-174.2 -206.681)" fill="#ffc9c0"/>
                              <path id="Path_105956" data-name="Path 105956" d="M183.191,237.634l-7.948-12.608a2.847,2.847,0,0,1,1.389-3.8h0a3.253,3.253,0,0,1,3.972,1.155l10.451,14.5Z" transform="translate(-174.978 -205.83)" fill="#ffc9c0"/>
                            </g>
                          </g>
                          <path id="Path_105957" data-name="Path 105957" d="M215.7,236.109s-11.936-1.252-13.163,14.655" transform="translate(-171.889 -204.134)" fill="none" stroke="#ffa99b" stroke-linecap="round" stroke-linejoin="round" stroke-width="1.532"/>
                        </g>
                      </g>
                      <g id="Group_56878" data-name="Group 56878" transform="translate(69.93 14.956)">
                        <g id="Group_56877" data-name="Group 56877" transform="translate(0 35.897)">
                          <path id="Path_105958" data-name="Path 105958" d="M237.859,341.16s9.805,33.933,29.344,29.422,49.992-46.243,49.992-46.243l-6.816-71.257-54.841,67.5Z" transform="translate(-237.859 -253.082)" fill="#ffc9c0"/>
                          <path id="Path_105959" data-name="Path 105959" d="M269.051,295.539s18.515,27.928,34.31,37.776L313.7,320.266l-39.881-30.851Z" transform="translate(-234.363 -249.009)" fill="#ffa99b"/>
                        </g>
                        <path id="Path_105960" data-name="Path 105960" d="M350.292,220.8s-54.359,12.252-83.327,75.429c0,0,17.5,26.372,45.561,38.094l18.786-23.014Z" transform="translate(-234.596 -220.803)" fill="#4679ff"/>
                      </g>
                    </g>
                    <g id="Group_56880" data-name="Group 56880" transform="translate(150.207 10.041)">
                      <path id="Path_105961" data-name="Path 105961" d="M345.379,221.1A136.132,136.132,0,0,0,310.8,246.44l4.189,184.675H448.8l-.434-183.722s-16.867-16.507-35.148-24.554C397.691,216,360.475,213.36,345.379,221.1Z" transform="translate(-309.96 -216.383)" fill="#4679ff"/>
                      <path id="Rectangle_19638" data-name="Rectangle 19638" d="M0,0H37.225a0,0,0,0,1,0,0V20.489A16.736,16.736,0,0,1,20.489,37.225H16.736A16.736,16.736,0,0,1,0,20.489V0A0,0,0,0,1,0,0Z" transform="translate(80.127 57.482)" fill="#4679ff" stroke="#fff" stroke-linecap="round" stroke-linejoin="round" stroke-width="1.397"/>
                      <line id="Line_1104" data-name="Line 1104" y1="60.412" x2="1.736" transform="translate(138.622 61.676)" fill="none" stroke="#fff" stroke-linecap="round" stroke-linejoin="round" stroke-width="1.397"/>
                      <line id="Line_1105" data-name="Line 1105" x1="2.891" y1="52.368" transform="translate(0 59.653)" fill="none" stroke="#fff" stroke-linecap="round" stroke-linejoin="round" stroke-width="1.397"/>
                    </g>
                  </g>
                  <g id="Group_56890" data-name="Group 56890" transform="translate(175.066)">
                    <path id="Path_105962" data-name="Path 105962" d="M343.929,164.892l-5.578-27.6c-.314-2.248-1.185-5.716-.118-8.976,1.767-5.393,8.261-15.748,19.358-11.006l2.4,10.925s-11.526,2.326-16.15,17.4Z" transform="translate(-331.801 -104.259)" fill="#061641"/>
                    <path id="Path_105963" data-name="Path 105963" d="M356.527,122.313c-.2,3.625-3.4,19.491-14.654,25.271C341.873,147.584,332.018,126.448,356.527,122.313Z" transform="translate(-331.554 -103.563)" fill="#061641"/>
                    <path id="Path_105964" data-name="Path 105964" d="M396,220.781h0v-46.86H352.8v46.86l-12.859,5.862s3.016,19.422,34.912,19.852,35.1-18.9,35.1-18.9Z" transform="translate(-331.552 -97.778)" fill="#ffc9c0"/>
                    <path id="Path_105965" data-name="Path 105965" d="M355.588,118.507s7.928-20.915,32.375-9.8c14.8,6.729,18.941,15.753,20.705,22.145a25.719,25.719,0,0,1,.659,7.458l-5.913,27.772L380.328,127.66l-22.34,1.772Z" transform="translate(-329.798 -105.453)" fill="#061641"/>
                    <g id="Group_56884" data-name="Group 56884" transform="translate(71.053 57.648)">
                      <path id="Path_105966" data-name="Path 105966" d="M398.852,160.275s2.913-4.632,8.919-2.354,3.29,16.867-5.721,18.725a7.126,7.126,0,0,1-5.763-1.507S398.5,164.364,398.852,160.275Z" transform="translate(-396.288 -157.291)" fill="#feb3a7"/>
                      <g id="Group_56883" data-name="Group 56883" transform="translate(1.689 5.613)">
                        <g id="Group_56882" data-name="Group 56882">
                          <path id="Path_105967" data-name="Path 105967" d="M406.41,162.5s-5.032-1.679-8.6,5.731" transform="translate(-397.807 -162.338)" fill="none" stroke="#ff7f6b" stroke-linecap="round" stroke-linejoin="round" stroke-width="1.397" opacity="0.53"/>
                        </g>
                      </g>
                    </g>
                    <g id="Group_56887" data-name="Group 56887" transform="translate(0 57.648)">
                      <path id="Path_105968" data-name="Path 105968" d="M344.526,160.275s-2.913-4.632-8.919-2.354-3.29,16.867,5.721,18.725a7.127,7.127,0,0,0,5.763-1.507S344.874,164.364,344.526,160.275Z" transform="translate(-332.397 -157.291)" fill="#feb3a7"/>
                      <g id="Group_56886" data-name="Group 56886" transform="translate(4.4 5.613)">
                        <g id="Group_56885" data-name="Group 56885">
                          <path id="Path_105969" data-name="Path 105969" d="M336.354,162.5s5.032-1.679,8.6,5.731" transform="translate(-336.354 -162.338)" fill="none" stroke="#ff7f6b" stroke-linecap="round" stroke-linejoin="round" stroke-width="1.397" opacity="0.53"/>
                        </g>
                      </g>
                    </g>
                    <path id="Path_105970" data-name="Path 105970" d="M405.463,150.676c0,8.794-.861,27.193-6.267,38.114-5.077,10.254-13.472,15.772-24.479,16.1s-19.206-3.913-25.777-17.221-6.258-36.829-6.258-36.829,0-31.416,31.05-31.416C406.434,119.424,405.463,150.676,405.463,150.676Z" transform="translate(-331.245 -103.887)" fill="#ffc9c0"/>
                    <path id="Path_105971" data-name="Path 105971" d="M351.794,186.688s3.618,18.355,19.592,20.464c18.385,2.428,23.282-20,23.282-20s-8.124,10.18-20.972,10.2A28.11,28.11,0,0,1,351.794,186.688Z" transform="translate(-330.223 -96.347)" fill="#ffa99b"/>
                    <g id="Group_56889" data-name="Group 56889" transform="translate(11.818 39.438)">
                      <path id="Path_105972" data-name="Path 105972" d="M370.964,152.018,368.917,166.3a2.376,2.376,0,0,0,.17.886,2.34,2.34,0,0,0,2.79,1.294l2.411-.642" transform="translate(-340.577 -138.806)" fill="none" stroke="#ff7f6b" stroke-linecap="round" stroke-linejoin="round" stroke-width="1.397"/>
                      <path id="Path_105973" data-name="Path 105973" d="M361.242,156.417a2.827,2.827,0,1,1-2.827-2.827A2.827,2.827,0,0,1,361.242,156.417Z" transform="translate(-341.616 -139.495)" fill="#061641"/>
                      <path id="Path_105974" data-name="Path 105974" d="M385.071,156.417a2.826,2.826,0,1,1-2.826-2.827A2.826,2.826,0,0,1,385.071,156.417Z" transform="translate(-338.945 -139.495)" fill="#061641"/>
                      <path id="Path_105975" data-name="Path 105975" d="M375.454,143.776l19,4.909s-.864-5.33-8.639-7.268S375.454,143.776,375.454,143.776Z" transform="translate(-339.389 -140.916)" fill="#061641"/>
                      <path id="Path_105976" data-name="Path 105976" d="M366.751,143.776l-19,4.909s.864-5.33,8.639-7.268S366.751,143.776,366.751,143.776Z" transform="translate(-342.495 -140.916)" fill="#061641"/>
                      <path id="Path_105977" data-name="Path 105977" d="M361.436,172.379s2.8,5.133,10.177,5.133c6.7,0,10.892-5.133,10.892-5.133" transform="translate(-340.945 -132.544)" fill="none" stroke="#ff7f6b" stroke-linecap="round" stroke-linejoin="round" stroke-width="1.397"/>
                      <g id="Group_56888" data-name="Group 56888" transform="translate(0 5.737)">
                        <circle id="Ellipse_5632" data-name="Ellipse 5632" cx="12.011" cy="12.011" r="12.011" transform="translate(4.027)" fill="none" stroke="#fff" stroke-miterlimit="10" stroke-width="1.951"/>
                        <circle id="Ellipse_5633" data-name="Ellipse 5633" cx="12.011" cy="12.011" r="12.011" transform="translate(33.534)" fill="none" stroke="#fff" stroke-miterlimit="10" stroke-width="1.951"/>
                        <path id="Path_105978" data-name="Path 105978" d="M368.246,156.994s2.845-2.656,5.485,0" transform="translate(-340.197 -144.983)" fill="none" stroke="#fff" stroke-miterlimit="10" stroke-width="1.951"/>
                        <line id="Line_1106" data-name="Line 1106" x1="4.027" y1="0.102" transform="translate(0 11.909)" fill="none" stroke="#fff" stroke-miterlimit="10" stroke-width="1.951"/>
                        <line id="Line_1107" data-name="Line 1107" y1="0.073" x2="4.496" transform="translate(57.556 11.938)" fill="none" stroke="#fff" stroke-miterlimit="10" stroke-width="1.951"/>
                      </g>
                    </g>
                    <path id="Path_105979" data-name="Path 105979" d="M351.794,123.66s5.768,16.387,31.8,15.884C401.276,139.2,405.5,152,405.5,152s-3.078-28.611-3.887-28.341S374.7,116.7,374.7,116.7Z" transform="translate(-330.223 -104.193)" fill="#061641"/>
                  </g>
                </g>
              </g>
            </g>
          </g>
        </g>
      </g>
      <g id="Group_56898" data-name="Group 56898" transform="translate(1116.659 569.279)">
        <rect id="Rectangle_19631" data-name="Rectangle 19631" width="79.323" height="77.112" rx="6.639" fill="#ff7935"/>
        <path id="Path_105983" data-name="Path 105983" d="M192.3,45.979a9.727,9.727,0,0,1,4.238-4.166,11.893,11.893,0,0,1,11.984.292,11.49,11.49,0,0,1,5.554,9.938,11.939,11.939,0,0,1-2.265,6.942,10.152,10.152,0,0,0-1.9,5.846,1.315,1.315,0,0,1-2.63,0,12.781,12.781,0,0,1,2.411-7.454A8.986,8.986,0,0,0,207.14,44.37a9.6,9.6,0,0,0-9.427-.146,6.927,6.927,0,0,0-3.069,3.069,9.605,9.605,0,0,0,.438,10.085,12.491,12.491,0,0,1,2.339,7.381,1.315,1.315,0,1,1-2.63,0,10.091,10.091,0,0,0-1.827-5.846,12.278,12.278,0,0,1-.66-12.934ZM194.57,68.34a1.31,1.31,0,0,0,1.315,1.315h12.569a1.315,1.315,0,1,0,0-2.63H195.885a1.31,1.31,0,0,0-1.316,1.316Zm11.838,4.6a1.309,1.309,0,0,0-1.315-1.315h-5.627a1.315,1.315,0,1,0,0,2.63h5.627A1.358,1.358,0,0,0,206.408,72.943ZM203.85,56.282l3.215-3a1.344,1.344,0,1,0-1.827-1.973l-2.7,2.558-2.7-2.558A1.344,1.344,0,0,0,198,53.286l3.215,3v8.038a1.316,1.316,0,1,0,2.631,0V56.282Zm-1.316-18.269A1.31,1.31,0,0,0,203.85,36.7V31a1.315,1.315,0,1,0-2.63,0v5.7A1.358,1.358,0,0,0,202.535,38.013Zm13.738,13.665a1.31,1.31,0,0,0,1.315,1.315h5.7a1.315,1.315,0,0,0,0-2.63h-5.7A1.228,1.228,0,0,0,216.273,51.678Zm-25.211-9.646a1.211,1.211,0,0,0,.95.366,1.54,1.54,0,0,0,.95-.366,1.367,1.367,0,0,0,0-1.9l-4.019-4.019a1.343,1.343,0,0,0-1.9,1.9Zm22.069.366a1.54,1.54,0,0,0,.95-.366l4.019-4.019a1.343,1.343,0,0,0-1.9-1.9l-4.019,4.019a1.367,1.367,0,0,0,0,1.9,1.537,1.537,0,0,0,.95.366Zm-31.5,10.523h5.7a1.315,1.315,0,1,0,0-2.63h-5.7a1.315,1.315,0,1,0,0,2.63Zm35.223,14.615a1.54,1.54,0,0,0,.95-.366,1.367,1.367,0,0,0,0-1.9L214.3,61.763a1.343,1.343,0,0,0-1.9,1.9l3.508,3.508a2.24,2.24,0,0,0,.95.366Zm-29.23,0a1.54,1.54,0,0,0,.95-.366l3.581-3.581a1.343,1.343,0,0,0-1.9-1.9l-3.581,3.581a1.367,1.367,0,0,0,0,1.9,1.387,1.387,0,0,0,.95.366Z" transform="translate(-162.878 -14.179)" fill="#fff"/>
      </g>
      <g id="Group_56899" data-name="Group 56899" transform="translate(1686.448 448.15)">
        <path id="Path_105984" data-name="Path 105984" d="M143.643,130.306a1.269,1.269,0,0,1,2.083-1.451c.252.379.5.821.757,1.2a1.265,1.265,0,0,1-.568,1.7,1.849,1.849,0,0,1-.568.126,1.329,1.329,0,0,1-1.136-.694c-.19-.316-.379-.568-.568-.884ZM123.51,144.253l8.457,6.753a1.212,1.212,0,0,0,.757.252,1.1,1.1,0,0,0,.757-.252l8.457-6.816c2.84-2.524,5.49-5.427,5.49-9.719a1.262,1.262,0,1,0-2.524,0c0,3.155-1.767,5.3-4.607,7.826l-7.637,6.122-7.636-6.059c-2.84-2.524-4.607-4.67-4.607-7.826a7.191,7.191,0,0,1,7.195-7.195,7.043,7.043,0,0,1,4.291,1.451,1.33,1.33,0,0,0,1.515,0,7.045,7.045,0,0,1,7.7-.568,1.257,1.257,0,0,0,1.2-2.209,9.761,9.761,0,0,0-4.607-1.136,9.417,9.417,0,0,0-5.049,1.451,9.577,9.577,0,0,0-5.049-1.451,9.723,9.723,0,0,0-9.719,9.719c.064,4.165,2.714,7.069,5.618,9.656Zm24.865,13.505-10.35,7.825a28.87,28.87,0,0,1-3.913,2.461,6.961,6.961,0,0,1-1.578.694l-.126.063c-1.073.252-2.02.379-5.365-.757-3.408-1.2-7.068-2.209-7.068-2.271l-.189-.063-.126-.063s-1.136-.568-3.471.884c-1.893,1.2-4.039,2.588-5.49,3.534a2.776,2.776,0,0,1-1.388.442,3.152,3.152,0,0,1-.757-.126,2.28,2.28,0,0,1-1.578-1.451l-3.913-9.215a2.48,2.48,0,0,1,1.326-3.282l10.1-4.291a17.408,17.408,0,0,1,4.1-1.136,9.909,9.909,0,0,1,3.092.063,37.688,37.688,0,0,1,4.985,1.7l2.083.631a5.076,5.076,0,0,0,3.029-.063,4.1,4.1,0,0,1,4.355,1.136,1.676,1.676,0,0,1,.316.379l8.9-3.787h.126c1.451-.189,3.723.252,4.165,2.524a3.823,3.823,0,0,1-1.263,4.165Zm-36.1,8.33-3.66-8.709-3.218,1.326,3.913,9.277C110.131,167.477,111.141,166.783,112.277,166.089ZM147.24,154.1c-.126-.568-.884-.631-1.2-.568l-8.835,3.723a1.167,1.167,0,0,1-.126.442,5.9,5.9,0,0,1-1.262,1.7,11.08,11.08,0,0,1-2.524,1.578,7.986,7.986,0,0,1-4.165.946,44.407,44.407,0,0,1-5.175-1.136,1.262,1.262,0,0,1-.884-1.578,1.224,1.224,0,0,1,1.515-.884c.063,0,3.408.884,4.8,1.073a5.85,5.85,0,0,0,2.713-.694l.063-.063a6.919,6.919,0,0,0,1.893-1.2,2.712,2.712,0,0,0,.568-.631v-.063a.474.474,0,0,1-.063-.316.862.862,0,0,0-.189-.252,1.77,1.77,0,0,0-1.767-.631,7.492,7.492,0,0,1-4.733.126l-2.272-.757a30.183,30.183,0,0,0-4.607-1.578,5.111,5.111,0,0,0-1.01-.063,8.065,8.065,0,0,0-1.2.063,13.78,13.78,0,0,0-3.408.946l-4.544,1.956,3.534,8.331c.126-.063.316-.189.442-.252,3.155-1.956,5.238-1.326,5.932-1.01.631.189,3.976,1.136,7.068,2.209,2.9,1.01,3.408.821,3.913.694l.189-.063a5,5,0,0,0,1.01-.5,23.912,23.912,0,0,0,3.534-2.272l10.35-7.826c.127.125.695-.379.442-1.452Z" transform="translate(-102.852 -124.878)" fill="#fff"/>
        <path id="Path_105480" data-name="Path 105480" d="M-98.319,88.773l-.02.021-4.987,5.249L-105.5,91.66a.955.955,0,0,0-.672-.3h-.033a.962.962,0,0,0-.665.264A.98.98,0,0,0-106.918,93l2.926,3.079a1.035,1.035,0,0,0,.716.345.772.772,0,0,0,.585-.291l.033-.039,5.664-5.97a.961.961,0,0,0,.27-.686.956.956,0,0,0-.294-.672l-.036-.036a.874.874,0,0,0-1.23,0Z" transform="translate(131.89 -80.647)" fill="#fff" stroke="#fff" stroke-width="0.5"/>
      </g>
    </g>
  </g>
</svg>
